<mxfile host="app.diagrams.net" modified="2024-05-03T20:25:48.811Z" agent="Mozilla/5.0 (Windows NT 10.0; Win64; x64; rv:125.0) Gecko/20100101 Firefox/125.0" etag="u2CxkQyPoI6Oq-njWDG3" version="24.3.1" type="github">
  <diagram id="C5RBs43oDa-KdzZeNtuy" name="Page-1">
    <mxGraphModel dx="1434" dy="820" grid="1" gridSize="10" guides="1" tooltips="1" connect="1" arrows="1" fold="1" page="1" pageScale="1" pageWidth="827" pageHeight="1169" math="0" shadow="0">
      <root>
        <mxCell id="WIyWlLk6GJQsqaUBKTNV-0" />
        <mxCell id="WIyWlLk6GJQsqaUBKTNV-1" parent="WIyWlLk6GJQsqaUBKTNV-0" />
        <mxCell id="4oLKfQXwquB9OFgYayja-6" value="Animals" style="swimlane;fontStyle=1;align=center;verticalAlign=top;childLayout=stackLayout;horizontal=1;startSize=26;horizontalStack=0;resizeParent=1;resizeParentMax=0;resizeLast=0;collapsible=1;marginBottom=0;whiteSpace=wrap;html=1;" vertex="1" parent="WIyWlLk6GJQsqaUBKTNV-1">
          <mxGeometry x="320" y="320" width="120" height="210" as="geometry" />
        </mxCell>
        <mxCell id="4oLKfQXwquB9OFgYayja-8" value="" style="line;strokeWidth=1;fillColor=none;align=left;verticalAlign=middle;spacingTop=-1;spacingLeft=3;spacingRight=3;rotatable=0;labelPosition=right;points=[];portConstraint=eastwest;strokeColor=inherit;" vertex="1" parent="4oLKfQXwquB9OFgYayja-6">
          <mxGeometry y="26" width="120" height="8" as="geometry" />
        </mxCell>
        <mxCell id="4oLKfQXwquB9OFgYayja-7" value="&lt;div&gt;+ edad: number&lt;br&gt;&lt;/div&gt;&lt;div&gt;+ genero:String &lt;br&gt;&lt;/div&gt;&lt;div&gt;+nombre:String&lt;/div&gt;&lt;div&gt;+estarVivo:Boolean&lt;/div&gt;&lt;div&gt;&lt;br&gt;&lt;/div&gt;&lt;div&gt;&lt;br&gt;&lt;/div&gt;" style="text;strokeColor=none;fillColor=none;align=left;verticalAlign=top;spacingLeft=4;spacingRight=4;overflow=hidden;rotatable=0;points=[[0,0.5],[1,0.5]];portConstraint=eastwest;whiteSpace=wrap;html=1;" vertex="1" parent="4oLKfQXwquB9OFgYayja-6">
          <mxGeometry y="34" width="120" height="106" as="geometry" />
        </mxCell>
        <mxCell id="4oLKfQXwquB9OFgYayja-68" value="" style="shape=link;html=1;rounded=0;" edge="1" parent="4oLKfQXwquB9OFgYayja-6">
          <mxGeometry width="100" relative="1" as="geometry">
            <mxPoint y="120" as="sourcePoint" />
            <mxPoint x="120" y="120" as="targetPoint" />
          </mxGeometry>
        </mxCell>
        <mxCell id="4oLKfQXwquB9OFgYayja-9" value="&lt;div&gt;+ comer():&lt;/div&gt;&lt;div&gt;+dormir()&lt;/div&gt;&lt;div&gt;+datluz()&lt;br&gt;&lt;/div&gt;&lt;div&gt;&lt;br&gt;&lt;/div&gt;" style="text;strokeColor=none;fillColor=none;align=left;verticalAlign=top;spacingLeft=4;spacingRight=4;overflow=hidden;rotatable=0;points=[[0,0.5],[1,0.5]];portConstraint=eastwest;whiteSpace=wrap;html=1;" vertex="1" parent="4oLKfQXwquB9OFgYayja-6">
          <mxGeometry y="140" width="120" height="70" as="geometry" />
        </mxCell>
        <mxCell id="4oLKfQXwquB9OFgYayja-12" value="Oviparos" style="swimlane;fontStyle=1;align=center;verticalAlign=top;childLayout=stackLayout;horizontal=1;startSize=26;horizontalStack=0;resizeParent=1;resizeParentMax=0;resizeLast=0;collapsible=1;marginBottom=0;whiteSpace=wrap;html=1;" vertex="1" parent="WIyWlLk6GJQsqaUBKTNV-1">
          <mxGeometry x="240" y="600" width="120" height="210" as="geometry" />
        </mxCell>
        <mxCell id="4oLKfQXwquB9OFgYayja-13" value="" style="line;strokeWidth=1;fillColor=none;align=left;verticalAlign=middle;spacingTop=-1;spacingLeft=3;spacingRight=3;rotatable=0;labelPosition=right;points=[];portConstraint=eastwest;strokeColor=inherit;" vertex="1" parent="4oLKfQXwquB9OFgYayja-12">
          <mxGeometry y="26" width="120" height="8" as="geometry" />
        </mxCell>
        <mxCell id="4oLKfQXwquB9OFgYayja-14" value="&lt;div&gt;+ edad: number&lt;br&gt;&lt;/div&gt;&lt;div&gt;+ genero:String &lt;br&gt;&lt;/div&gt;&lt;div&gt;+nombre:String&lt;/div&gt;&lt;div&gt;+estarVivo:Boolean&lt;/div&gt;&lt;div&gt;+tipoHuevo:String&lt;br&gt;&lt;/div&gt;&lt;div&gt;&lt;br&gt;&lt;/div&gt;&lt;div&gt;&lt;br&gt;&lt;/div&gt;" style="text;strokeColor=none;fillColor=none;align=left;verticalAlign=top;spacingLeft=4;spacingRight=4;overflow=hidden;rotatable=0;points=[[0,0.5],[1,0.5]];portConstraint=eastwest;whiteSpace=wrap;html=1;" vertex="1" parent="4oLKfQXwquB9OFgYayja-12">
          <mxGeometry y="34" width="120" height="106" as="geometry" />
        </mxCell>
        <mxCell id="4oLKfQXwquB9OFgYayja-16" value="" style="shape=link;html=1;rounded=0;" edge="1" parent="4oLKfQXwquB9OFgYayja-12">
          <mxGeometry width="100" relative="1" as="geometry">
            <mxPoint y="120" as="sourcePoint" />
            <mxPoint x="120" y="120" as="targetPoint" />
          </mxGeometry>
        </mxCell>
        <mxCell id="4oLKfQXwquB9OFgYayja-15" value="&lt;div&gt;+ comer():&lt;/div&gt;&lt;div&gt;+dormir()&lt;/div&gt;&lt;div&gt;+datluz()&lt;/div&gt;&lt;div&gt;+incubar()&lt;br&gt;&lt;/div&gt;&lt;div&gt;&lt;br&gt;&lt;/div&gt;" style="text;strokeColor=none;fillColor=none;align=left;verticalAlign=top;spacingLeft=4;spacingRight=4;overflow=hidden;rotatable=0;points=[[0,0.5],[1,0.5]];portConstraint=eastwest;whiteSpace=wrap;html=1;" vertex="1" parent="4oLKfQXwquB9OFgYayja-12">
          <mxGeometry y="140" width="120" height="70" as="geometry" />
        </mxCell>
        <mxCell id="4oLKfQXwquB9OFgYayja-17" value="Viviparos" style="swimlane;fontStyle=1;align=center;verticalAlign=top;childLayout=stackLayout;horizontal=1;startSize=26;horizontalStack=0;resizeParent=1;resizeParentMax=0;resizeLast=0;collapsible=1;marginBottom=0;whiteSpace=wrap;html=1;" vertex="1" parent="WIyWlLk6GJQsqaUBKTNV-1">
          <mxGeometry x="414" y="600" width="120" height="210" as="geometry" />
        </mxCell>
        <mxCell id="4oLKfQXwquB9OFgYayja-18" value="" style="line;strokeWidth=1;fillColor=none;align=left;verticalAlign=middle;spacingTop=-1;spacingLeft=3;spacingRight=3;rotatable=0;labelPosition=right;points=[];portConstraint=eastwest;strokeColor=inherit;" vertex="1" parent="4oLKfQXwquB9OFgYayja-17">
          <mxGeometry y="26" width="120" height="8" as="geometry" />
        </mxCell>
        <mxCell id="4oLKfQXwquB9OFgYayja-19" value="&lt;div&gt;+ edad: number&lt;br&gt;&lt;/div&gt;&lt;div&gt;+ genero:String &lt;br&gt;&lt;/div&gt;&lt;div&gt;+nombre:String&lt;/div&gt;&lt;div&gt;+estarVivo:Boolean&lt;/div&gt;&lt;div&gt;plancenta:Boolean&lt;br&gt;&lt;/div&gt;&lt;div&gt;&lt;br&gt;&lt;/div&gt;&lt;div&gt;&lt;br&gt;&lt;/div&gt;" style="text;strokeColor=none;fillColor=none;align=left;verticalAlign=top;spacingLeft=4;spacingRight=4;overflow=hidden;rotatable=0;points=[[0,0.5],[1,0.5]];portConstraint=eastwest;whiteSpace=wrap;html=1;" vertex="1" parent="4oLKfQXwquB9OFgYayja-17">
          <mxGeometry y="34" width="120" height="106" as="geometry" />
        </mxCell>
        <mxCell id="4oLKfQXwquB9OFgYayja-20" value="" style="shape=link;html=1;rounded=0;" edge="1" parent="4oLKfQXwquB9OFgYayja-17">
          <mxGeometry width="100" relative="1" as="geometry">
            <mxPoint y="120" as="sourcePoint" />
            <mxPoint x="120" y="120" as="targetPoint" />
          </mxGeometry>
        </mxCell>
        <mxCell id="4oLKfQXwquB9OFgYayja-21" value="&lt;div&gt;+ comer():&lt;/div&gt;&lt;div&gt;+dormir()&lt;/div&gt;&lt;div&gt;+datluz()&lt;/div&gt;&lt;div&gt;+incubar()&lt;br&gt;&lt;/div&gt;&lt;div&gt;&lt;br&gt;&lt;/div&gt;" style="text;strokeColor=none;fillColor=none;align=left;verticalAlign=top;spacingLeft=4;spacingRight=4;overflow=hidden;rotatable=0;points=[[0,0.5],[1,0.5]];portConstraint=eastwest;whiteSpace=wrap;html=1;" vertex="1" parent="4oLKfQXwquB9OFgYayja-17">
          <mxGeometry y="140" width="120" height="70" as="geometry" />
        </mxCell>
        <mxCell id="4oLKfQXwquB9OFgYayja-26" value="Aves" style="swimlane;fontStyle=1;align=center;verticalAlign=top;childLayout=stackLayout;horizontal=1;startSize=26;horizontalStack=0;resizeParent=1;resizeParentMax=0;resizeLast=0;collapsible=1;marginBottom=0;whiteSpace=wrap;html=1;" vertex="1" parent="WIyWlLk6GJQsqaUBKTNV-1">
          <mxGeometry x="11" y="880" width="110" height="370" as="geometry" />
        </mxCell>
        <mxCell id="4oLKfQXwquB9OFgYayja-27" value="" style="line;strokeWidth=1;fillColor=none;align=left;verticalAlign=middle;spacingTop=-1;spacingLeft=3;spacingRight=3;rotatable=0;labelPosition=right;points=[];portConstraint=eastwest;strokeColor=inherit;" vertex="1" parent="4oLKfQXwquB9OFgYayja-26">
          <mxGeometry y="26" width="110" height="8" as="geometry" />
        </mxCell>
        <mxCell id="4oLKfQXwquB9OFgYayja-50" value="" style="shape=link;html=1;rounded=0;entryX=1;entryY=0.445;entryDx=0;entryDy=0;entryPerimeter=0;" edge="1" parent="4oLKfQXwquB9OFgYayja-26" target="4oLKfQXwquB9OFgYayja-28">
          <mxGeometry width="100" relative="1" as="geometry">
            <mxPoint x="-1" y="190" as="sourcePoint" />
            <mxPoint x="99" y="190" as="targetPoint" />
          </mxGeometry>
        </mxCell>
        <mxCell id="4oLKfQXwquB9OFgYayja-28" value="&lt;div&gt;+ edad: number&lt;br&gt;&lt;/div&gt;&lt;div&gt;+ genero:String &lt;br&gt;&lt;/div&gt;&lt;div&gt;+nombre:String&lt;/div&gt;&lt;div&gt;+estarVivo:Boolean&lt;/div&gt;&lt;div&gt;+tipoHuevo:String&lt;/div&gt;&lt;div&gt;+tipoPico:String&lt;/div&gt;&lt;div&gt;+tipoDeAlas:String&lt;/div&gt;&lt;div&gt;+habitad:String&lt;/div&gt;&lt;div&gt;+sexo:String&lt;/div&gt;&lt;div&gt;&lt;br&gt;&lt;/div&gt;&lt;div&gt;&lt;br&gt;&lt;/div&gt;&lt;div&gt;&lt;br&gt;&lt;/div&gt;&lt;div&gt;&lt;div&gt;+ comer():&lt;/div&gt;&lt;div&gt;+dormir()&lt;/div&gt;&lt;div&gt;+datluz()&lt;/div&gt;&lt;div&gt;+incubar()&lt;/div&gt;&lt;div&gt;+volar()&lt;/div&gt;&lt;div&gt;+cantar()&lt;/div&gt;&lt;div&gt;+construirNido()&lt;/div&gt;&lt;div&gt;&lt;br&gt;&lt;/div&gt;&lt;div&gt;&lt;br&gt;&lt;/div&gt;&lt;div&gt;&lt;br&gt;&lt;/div&gt;&lt;div&gt;&lt;br&gt;&lt;/div&gt;&lt;div&gt;&lt;br&gt;&lt;br&gt;&lt;/div&gt;&lt;/div&gt;&lt;div&gt;&lt;br&gt;&lt;/div&gt;&lt;div&gt;&lt;br&gt;&lt;/div&gt;&lt;div&gt;&lt;br&gt;&lt;/div&gt;&lt;div&gt;&lt;br&gt;&lt;/div&gt;&lt;div&gt;&lt;br&gt;&lt;/div&gt;&lt;div&gt;&lt;br&gt;&lt;/div&gt;" style="text;strokeColor=none;fillColor=none;align=left;verticalAlign=top;spacingLeft=4;spacingRight=4;overflow=hidden;rotatable=0;points=[[0,0.5],[1,0.5]];portConstraint=eastwest;whiteSpace=wrap;html=1;" vertex="1" parent="4oLKfQXwquB9OFgYayja-26">
          <mxGeometry y="34" width="110" height="336" as="geometry" />
        </mxCell>
        <mxCell id="4oLKfQXwquB9OFgYayja-51" value="Felino" style="swimlane;fontStyle=1;align=center;verticalAlign=top;childLayout=stackLayout;horizontal=1;startSize=26;horizontalStack=0;resizeParent=1;resizeParentMax=0;resizeLast=0;collapsible=1;marginBottom=0;whiteSpace=wrap;html=1;" vertex="1" parent="WIyWlLk6GJQsqaUBKTNV-1">
          <mxGeometry x="640" y="880" width="150" height="380" as="geometry" />
        </mxCell>
        <mxCell id="4oLKfQXwquB9OFgYayja-52" value="" style="line;strokeWidth=1;fillColor=none;align=left;verticalAlign=middle;spacingTop=-1;spacingLeft=3;spacingRight=3;rotatable=0;labelPosition=right;points=[];portConstraint=eastwest;strokeColor=inherit;" vertex="1" parent="4oLKfQXwquB9OFgYayja-51">
          <mxGeometry y="26" width="150" height="8" as="geometry" />
        </mxCell>
        <mxCell id="4oLKfQXwquB9OFgYayja-53" value="" style="shape=link;html=1;rounded=0;entryX=1;entryY=0.445;entryDx=0;entryDy=0;entryPerimeter=0;" edge="1" parent="4oLKfQXwquB9OFgYayja-51" target="4oLKfQXwquB9OFgYayja-54">
          <mxGeometry width="100" relative="1" as="geometry">
            <mxPoint x="-1" y="190" as="sourcePoint" />
            <mxPoint x="99" y="190" as="targetPoint" />
          </mxGeometry>
        </mxCell>
        <mxCell id="4oLKfQXwquB9OFgYayja-54" value="&lt;div&gt;+ edad: number&lt;br&gt;&lt;/div&gt;&lt;div&gt;+ genero:String &lt;br&gt;&lt;/div&gt;&lt;div&gt;+nombre:String&lt;/div&gt;&lt;div&gt;+estarVivo:Boolean&lt;/div&gt;&lt;div&gt;+tipoDePelaje:String&lt;/div&gt;&lt;div&gt;+habitad:String&lt;/div&gt;&lt;div&gt;+tipoDeGarras:String&lt;/div&gt;&lt;div&gt;+sexo:String&lt;/div&gt;&lt;div&gt;+placenta:boolean&lt;br&gt;&lt;/div&gt;&lt;div&gt;&lt;br&gt;&lt;/div&gt;&lt;div&gt;&lt;br&gt;&lt;/div&gt;&lt;div&gt;&lt;br&gt;&lt;/div&gt;&lt;div&gt;&lt;div&gt;+ comer():&lt;/div&gt;&lt;div&gt;+dormir()&lt;/div&gt;&lt;div&gt;+datluz()&lt;/div&gt;&lt;div&gt;+cazar()&lt;/div&gt;&lt;div&gt;+trepar()&lt;/div&gt;&lt;div&gt;+ronronear()&lt;/div&gt;&lt;div&gt;+amamantar()&lt;/div&gt;&lt;div&gt;&lt;br&gt;&lt;/div&gt;&lt;div&gt;&lt;br&gt;&lt;/div&gt;&lt;div&gt;&lt;br&gt;&lt;/div&gt;&lt;div&gt;&lt;br&gt;&lt;br&gt;&lt;/div&gt;&lt;/div&gt;&lt;div&gt;&lt;br&gt;&lt;/div&gt;&lt;div&gt;&lt;br&gt;&lt;/div&gt;&lt;div&gt;&lt;br&gt;&lt;/div&gt;&lt;div&gt;&lt;br&gt;&lt;/div&gt;&lt;div&gt;&lt;br&gt;&lt;/div&gt;&lt;div&gt;&lt;br&gt;&lt;/div&gt;" style="text;strokeColor=none;fillColor=none;align=left;verticalAlign=top;spacingLeft=4;spacingRight=4;overflow=hidden;rotatable=0;points=[[0,0.5],[1,0.5]];portConstraint=eastwest;whiteSpace=wrap;html=1;" vertex="1" parent="4oLKfQXwquB9OFgYayja-51">
          <mxGeometry y="34" width="150" height="346" as="geometry" />
        </mxCell>
        <mxCell id="4oLKfQXwquB9OFgYayja-59" value="Pez" style="swimlane;fontStyle=1;align=center;verticalAlign=top;childLayout=stackLayout;horizontal=1;startSize=26;horizontalStack=0;resizeParent=1;resizeParentMax=0;resizeLast=0;collapsible=1;marginBottom=0;whiteSpace=wrap;html=1;" vertex="1" parent="WIyWlLk6GJQsqaUBKTNV-1">
          <mxGeometry x="170" y="880" width="150" height="380" as="geometry" />
        </mxCell>
        <mxCell id="4oLKfQXwquB9OFgYayja-60" value="" style="line;strokeWidth=1;fillColor=none;align=left;verticalAlign=middle;spacingTop=-1;spacingLeft=3;spacingRight=3;rotatable=0;labelPosition=right;points=[];portConstraint=eastwest;strokeColor=inherit;" vertex="1" parent="4oLKfQXwquB9OFgYayja-59">
          <mxGeometry y="26" width="150" height="8" as="geometry" />
        </mxCell>
        <mxCell id="4oLKfQXwquB9OFgYayja-61" value="" style="shape=link;html=1;rounded=0;entryX=1;entryY=0.445;entryDx=0;entryDy=0;entryPerimeter=0;" edge="1" parent="4oLKfQXwquB9OFgYayja-59" target="4oLKfQXwquB9OFgYayja-62">
          <mxGeometry width="100" relative="1" as="geometry">
            <mxPoint x="-1" y="190" as="sourcePoint" />
            <mxPoint x="99" y="190" as="targetPoint" />
          </mxGeometry>
        </mxCell>
        <mxCell id="4oLKfQXwquB9OFgYayja-62" value="&lt;div&gt;+ edad: number&lt;br&gt;&lt;/div&gt;&lt;div&gt;+ genero:String &lt;br&gt;&lt;/div&gt;&lt;div&gt;+nombre:String&lt;/div&gt;&lt;div&gt;+estarVivo:Boolean&lt;/div&gt;&lt;div&gt;+tipoDeAletas:String&lt;/div&gt;&lt;div&gt;+habitad:String&lt;/div&gt;&lt;div&gt;+tipoDeEscamas:String&lt;/div&gt;&lt;div&gt;+sexo:String&lt;/div&gt;&lt;div&gt;+tipoHuevo:String&lt;br&gt;&lt;/div&gt;&lt;div&gt;&lt;br&gt;&lt;/div&gt;&lt;div&gt;&lt;br&gt;&lt;/div&gt;&lt;div&gt;&lt;div&gt;+ comer():&lt;/div&gt;&lt;div&gt;+dormir()&lt;/div&gt;&lt;div&gt;+datluz()&lt;/div&gt;&lt;div&gt;+IncubarHuevos()&lt;/div&gt;&lt;div&gt;+respirar()&lt;/div&gt;&lt;div&gt;+nadar()&lt;/div&gt;&lt;div&gt;&lt;br&gt;&lt;/div&gt;&lt;div&gt;&lt;br&gt;&lt;/div&gt;&lt;div&gt;&lt;br&gt;&lt;/div&gt;&lt;div&gt;&lt;br&gt;&lt;/div&gt;&lt;div&gt;&lt;br&gt;&lt;br&gt;&lt;/div&gt;&lt;/div&gt;&lt;div&gt;&lt;br&gt;&lt;/div&gt;&lt;div&gt;&lt;br&gt;&lt;/div&gt;&lt;div&gt;&lt;br&gt;&lt;/div&gt;&lt;div&gt;&lt;br&gt;&lt;/div&gt;&lt;div&gt;&lt;br&gt;&lt;/div&gt;&lt;div&gt;&lt;br&gt;&lt;/div&gt;" style="text;strokeColor=none;fillColor=none;align=left;verticalAlign=top;spacingLeft=4;spacingRight=4;overflow=hidden;rotatable=0;points=[[0,0.5],[1,0.5]];portConstraint=eastwest;whiteSpace=wrap;html=1;" vertex="1" parent="4oLKfQXwquB9OFgYayja-59">
          <mxGeometry y="34" width="150" height="346" as="geometry" />
        </mxCell>
        <mxCell id="4oLKfQXwquB9OFgYayja-90" style="edgeStyle=orthogonalEdgeStyle;rounded=0;orthogonalLoop=1;jettySize=auto;html=1;exitX=0.75;exitY=0;exitDx=0;exitDy=0;" edge="1" parent="WIyWlLk6GJQsqaUBKTNV-1" source="4oLKfQXwquB9OFgYayja-63">
          <mxGeometry relative="1" as="geometry">
            <mxPoint x="520" y="880" as="targetPoint" />
          </mxGeometry>
        </mxCell>
        <mxCell id="4oLKfQXwquB9OFgYayja-63" value="Paquidermo" style="swimlane;fontStyle=1;align=center;verticalAlign=top;childLayout=stackLayout;horizontal=1;startSize=26;horizontalStack=0;resizeParent=1;resizeParentMax=0;resizeLast=0;collapsible=1;marginBottom=0;whiteSpace=wrap;html=1;" vertex="1" parent="WIyWlLk6GJQsqaUBKTNV-1">
          <mxGeometry x="414" y="880" width="150" height="380" as="geometry" />
        </mxCell>
        <mxCell id="4oLKfQXwquB9OFgYayja-64" value="" style="line;strokeWidth=1;fillColor=none;align=left;verticalAlign=middle;spacingTop=-1;spacingLeft=3;spacingRight=3;rotatable=0;labelPosition=right;points=[];portConstraint=eastwest;strokeColor=inherit;" vertex="1" parent="4oLKfQXwquB9OFgYayja-63">
          <mxGeometry y="26" width="150" height="8" as="geometry" />
        </mxCell>
        <mxCell id="4oLKfQXwquB9OFgYayja-65" value="" style="shape=link;html=1;rounded=0;entryX=1;entryY=0.445;entryDx=0;entryDy=0;entryPerimeter=0;" edge="1" parent="4oLKfQXwquB9OFgYayja-63" target="4oLKfQXwquB9OFgYayja-66">
          <mxGeometry width="100" relative="1" as="geometry">
            <mxPoint x="-1" y="190" as="sourcePoint" />
            <mxPoint x="99" y="190" as="targetPoint" />
          </mxGeometry>
        </mxCell>
        <mxCell id="4oLKfQXwquB9OFgYayja-66" value="&lt;div&gt;+ edad: number&lt;br&gt;&lt;/div&gt;&lt;div&gt;+ genero:String &lt;br&gt;&lt;/div&gt;&lt;div&gt;+nombre:String&lt;/div&gt;&lt;div&gt;+estarVivo:Boolean&lt;/div&gt;&lt;div&gt;+tipoDePiel:String&lt;/div&gt;&lt;div&gt;+habitad:String&lt;/div&gt;&lt;div&gt;+tipoDePatas:String&lt;/div&gt;&lt;div&gt;+sexo:String&lt;/div&gt;&lt;div&gt;+placenta:boolean&lt;br&gt;&lt;/div&gt;&lt;div&gt;&lt;br&gt;&lt;/div&gt;&lt;div&gt;&lt;br&gt;&lt;/div&gt;&lt;div&gt;&lt;br&gt;&lt;/div&gt;&lt;div&gt;&lt;div&gt;+ comer():&lt;/div&gt;&lt;div&gt;+dormir()&lt;/div&gt;&lt;div&gt;+datluz()&lt;/div&gt;&lt;div&gt;+cazar()&lt;/div&gt;&lt;div&gt;+amamantar()&lt;/div&gt;&lt;div&gt;&lt;br&gt;&lt;/div&gt;&lt;div&gt;&lt;br&gt;&lt;/div&gt;&lt;div&gt;&lt;br&gt;&lt;/div&gt;&lt;div&gt;&lt;br&gt;&lt;br&gt;&lt;/div&gt;&lt;/div&gt;&lt;div&gt;&lt;br&gt;&lt;/div&gt;&lt;div&gt;&lt;br&gt;&lt;/div&gt;&lt;div&gt;&lt;br&gt;&lt;/div&gt;&lt;div&gt;&lt;br&gt;&lt;/div&gt;&lt;div&gt;&lt;br&gt;&lt;/div&gt;&lt;div&gt;&lt;br&gt;&lt;/div&gt;" style="text;strokeColor=none;fillColor=none;align=left;verticalAlign=top;spacingLeft=4;spacingRight=4;overflow=hidden;rotatable=0;points=[[0,0.5],[1,0.5]];portConstraint=eastwest;whiteSpace=wrap;html=1;" vertex="1" parent="4oLKfQXwquB9OFgYayja-63">
          <mxGeometry y="34" width="150" height="346" as="geometry" />
        </mxCell>
        <mxCell id="4oLKfQXwquB9OFgYayja-82" value="" style="endArrow=classic;html=1;rounded=0;" edge="1" parent="WIyWlLk6GJQsqaUBKTNV-1" target="4oLKfQXwquB9OFgYayja-17">
          <mxGeometry width="50" height="50" relative="1" as="geometry">
            <mxPoint x="430" y="535" as="sourcePoint" />
            <mxPoint x="480" y="585" as="targetPoint" />
            <Array as="points">
              <mxPoint x="450" y="555" />
            </Array>
          </mxGeometry>
        </mxCell>
        <mxCell id="4oLKfQXwquB9OFgYayja-83" value="" style="endArrow=classic;html=1;rounded=0;" edge="1" parent="WIyWlLk6GJQsqaUBKTNV-1" target="4oLKfQXwquB9OFgYayja-59">
          <mxGeometry width="50" height="50" relative="1" as="geometry">
            <mxPoint x="275" y="810" as="sourcePoint" />
            <mxPoint x="215" y="865" as="targetPoint" />
            <Array as="points" />
          </mxGeometry>
        </mxCell>
        <mxCell id="4oLKfQXwquB9OFgYayja-85" value="" style="endArrow=classic;html=1;rounded=0;exitX=-0.025;exitY=0.896;exitDx=0;exitDy=0;exitPerimeter=0;" edge="1" parent="WIyWlLk6GJQsqaUBKTNV-1" source="4oLKfQXwquB9OFgYayja-14" target="4oLKfQXwquB9OFgYayja-26">
          <mxGeometry width="50" height="50" relative="1" as="geometry">
            <mxPoint x="220" y="740" as="sourcePoint" />
            <mxPoint x="80" y="855" as="targetPoint" />
            <Array as="points" />
          </mxGeometry>
        </mxCell>
        <mxCell id="4oLKfQXwquB9OFgYayja-86" value="" style="endArrow=classic;html=1;rounded=0;" edge="1" parent="WIyWlLk6GJQsqaUBKTNV-1">
          <mxGeometry width="50" height="50" relative="1" as="geometry">
            <mxPoint x="330" y="540" as="sourcePoint" />
            <mxPoint x="270" y="595" as="targetPoint" />
            <Array as="points">
              <mxPoint x="290" y="580" />
            </Array>
          </mxGeometry>
        </mxCell>
        <mxCell id="4oLKfQXwquB9OFgYayja-89" value="" style="endArrow=classic;html=1;rounded=0;entryX=0.193;entryY=0.005;entryDx=0;entryDy=0;entryPerimeter=0;exitX=1;exitY=0.786;exitDx=0;exitDy=0;exitPerimeter=0;" edge="1" parent="WIyWlLk6GJQsqaUBKTNV-1" source="4oLKfQXwquB9OFgYayja-21" target="4oLKfQXwquB9OFgYayja-51">
          <mxGeometry width="50" height="50" relative="1" as="geometry">
            <mxPoint x="550" y="810" as="sourcePoint" />
            <mxPoint x="670" y="870" as="targetPoint" />
          </mxGeometry>
        </mxCell>
        <mxCell id="4oLKfQXwquB9OFgYayja-91" value="" style="endArrow=classic;html=1;rounded=0;" edge="1" parent="WIyWlLk6GJQsqaUBKTNV-1" target="4oLKfQXwquB9OFgYayja-63">
          <mxGeometry width="50" height="50" relative="1" as="geometry">
            <mxPoint x="440" y="810" as="sourcePoint" />
            <mxPoint x="560" y="870" as="targetPoint" />
          </mxGeometry>
        </mxCell>
      </root>
    </mxGraphModel>
  </diagram>
</mxfile>
